<svg id="Calque_1" data-name="Calque 1" xmlns="http://www.w3.org/2000/svg" xmlns:xlink="http://www.w3.org/1999/xlink" viewBox="0 0 83.55 89.25"><defs><style>.cls-1{mask:url(#mask);filter:url(#luminosity-noclip-2);}.cls-2{mix-blend-mode:multiply;}.cls-2,.cls-4{fill:url(#Áåçûìÿííûé_ãðàäèåíò_21);}.cls-3{mask:url(#mask-2);}.cls-5{mask:url(#mask-3);}.cls-6{fill:#00005b;}.cls-7{fill:#9797fd;}.cls-8{fill:#3e425c;}.cls-9{filter:url(#luminosity-noclip);}</style><filter id="luminosity-noclip" x="7161.18" y="-15391.5" width="83.55" height="32766" filterUnits="userSpaceOnUse" color-interpolation-filters="sRGB"><feFlood flood-color="#fff" result="bg"/><feBlend in="SourceGraphic" in2="bg"/></filter><mask id="mask" x="7161.18" y="-15391.5" width="83.55" height="32766" maskUnits="userSpaceOnUse"><g class="cls-9"/></mask><radialGradient id="Áåçûìÿííûé_ãðàäèåíò_21" cx="7202.95" cy="7202.85" r="41.77" gradientTransform="translate(13159.01 -1060.86) rotate(80.78)" gradientUnits="userSpaceOnUse"><stop offset="0" stop-color="#fff"/><stop offset="1"/></radialGradient><filter id="luminosity-noclip-2" x="7161.18" y="7161.07" width="83.55" height="83.55" filterUnits="userSpaceOnUse" color-interpolation-filters="sRGB"><feFlood flood-color="#fff" result="bg"/><feBlend in="SourceGraphic" in2="bg"/></filter><mask id="mask-2" x="7161.18" y="7161.07" width="83.55" height="83.55" maskUnits="userSpaceOnUse"><g class="cls-1"><circle class="cls-2" cx="7202.95" cy="7202.85" r="41.77" transform="matrix(0.16, -0.99, 0.99, 0.16, -1060.68, 13159.02)"/></g></mask><mask id="mask-3" x="0" y="5.7" width="83.55" height="83.55" maskUnits="userSpaceOnUse"><g transform="translate(-7161.18 -7155.38)"><g class="cls-3"><circle class="cls-4" cx="7202.95" cy="7202.85" r="41.77" transform="matrix(0.16, -0.99, 0.99, 0.16, -1060.68, 13159.02)"/></g></g></mask></defs><g class="cls-5"><path d="M7161.18,7202.85a41.77,41.77,0,1,1,41.77,41.77,41.78,41.78,0,0,1-41.77-41.77" transform="translate(-7161.18 -7155.38)"/></g><rect class="cls-6" x="10" width="60.34" height="60.34" rx="12.86"/><path class="cls-7" d="M7196.86,7191.43h-9.08l-2.27,6.85c0,.21-.17.31-.43.31H7181c-.27,0-.36-.13-.28-.39l8.14-23.24a6.67,6.67,0,0,0,.35-2.19c0-.16.09-.24.28-.24h5.63a.35.35,0,0,1,.31.2l9.08,25.51c.08.24,0,.35-.23.35h-4.62a.4.4,0,0,1-.39-.27Zm-8.06-3.79h7q-.15-.55-1.62-5c-1-3-1.62-5-1.94-6.09h0Q7191.77,7178.56,7188.8,7187.64Z" transform="translate(-7161.18 -7155.38)"/><path class="cls-7" d="M7217.52,7190h-7.86a5.2,5.2,0,0,0,1.5,3.81,5.93,5.93,0,0,0,4.29,1.43,11.29,11.29,0,0,0,4.85-1c.16-.05.24,0,.24.2v2.93a.47.47,0,0,1-.24.47,14,14,0,0,1-5.91,1.14,11.74,11.74,0,0,1-4.58-.83,7.33,7.33,0,0,1-3.05-2.23,9.75,9.75,0,0,1-1.62-3.07,11.83,11.83,0,0,1-.53-3.58,10.72,10.72,0,0,1,2.48-7.18,8.46,8.46,0,0,1,6.79-2.91c2.72,0,4.75.8,6.11,2.42a8.6,8.6,0,0,1,2,5.68,15.34,15.34,0,0,1-.15,2.23.34.34,0,0,1-.32.31A34.6,34.6,0,0,1,7217.52,7190Zm-7.86-3.06h5.55a14.33,14.33,0,0,0,2.08-.07,3.16,3.16,0,0,0,0-.55,4.45,4.45,0,0,0-.84-2.66,3.16,3.16,0,0,0-2.76-1.18,3.53,3.53,0,0,0-2.88,1.27A5.65,5.65,0,0,0,7209.66,7186.93Z" transform="translate(-7161.18 -7155.38)"/><path class="cls-8" d="M7165.62,7242.38l3.32-9.24a5,5,0,0,0,.1-.66.07.07,0,0,1,.08-.08h1.57a.08.08,0,0,1,.09.06l3.56,9.92q0,.12-.06.12H7173a.14.14,0,0,1-.12-.09l-1.12-3.14H7168l-1.08,3.12a.16.16,0,0,1-.14.11h-1.11" transform="translate(-7161.18 -7155.38)"/><path class="cls-8" d="M7168.34,7238.21h3.16s-.24-.71-.71-2.06-.76-2.24-.88-2.65h0Q7169.72,7234.17,7168.34,7238.21Z" transform="translate(-7161.18 -7155.38)"/><path class="cls-8" d="M7179.79,7236.27H7177v6.11c0,.08,0,.12-.1.12h-1.14a.1.1,0,0,1-.11-.11v-6.12h-1s-.07,0-.07-.08v-.85s0-.07.09-.07h.94v-.93a4,4,0,0,1,.33-1.7,2.17,2.17,0,0,1,2.1-1.23,2.11,2.11,0,0,1,1,.18.14.14,0,0,1,.08.12v.93c0,.09,0,.11-.09.08a1.66,1.66,0,0,0-.78-.18c-.85,0-1.27.57-1.27,1.72v1h2.84a14.23,14.23,0,0,1,.13-2,.11.11,0,0,1,.11-.1l1.1-.23c.06,0,.1,0,.1.06q-.09,1.05-.09,2.22h1.57c.07,0,.09,0,.09.07v.85c0,.05,0,.08-.09.08h-1.57v4.31a1.37,1.37,0,0,0,.2.82.83.83,0,0,0,.7.28,2.45,2.45,0,0,0,.74-.14c.06,0,.08,0,.08.07v.65a.15.15,0,0,1-.08.15,2.67,2.67,0,0,1-1.22.24c-1.19,0-1.78-.66-1.78-2Z" transform="translate(-7161.18 -7155.38)"/><path class="cls-8" d="M7188.08,7239h-3.21a2.61,2.61,0,0,0,.6,1.86,2.34,2.34,0,0,0,1.85.7,4.07,4.07,0,0,0,1.85-.39c.06,0,.1,0,.1.06v.82a.14.14,0,0,1-.08.14,4.65,4.65,0,0,1-2.15.45,3.26,3.26,0,0,1-2.69-1.07,4.12,4.12,0,0,1-.86-2.64,4.08,4.08,0,0,1,.91-2.72,3,3,0,0,1,2.45-1.1,2.64,2.64,0,0,1,2.21.91,3.17,3.17,0,0,1,.73,2.06,6.16,6.16,0,0,1,0,.75.16.16,0,0,1-.13.12A14.51,14.51,0,0,1,7188.08,7239Zm-3.21-.89h2.67a7,7,0,0,0,.95,0s0-.11,0-.24a2,2,0,0,0-.4-1.22,1.47,1.47,0,0,0-1.31-.56,1.65,1.65,0,0,0-1.34.58A2.77,2.77,0,0,0,7184.87,7238.12Z" transform="translate(-7161.18 -7155.38)"/><path class="cls-8" d="M7191.14,7235.27h1a.13.13,0,0,1,.14.1,4.76,4.76,0,0,1,.11.93,3,3,0,0,1,2.41-1.18c.06,0,.1,0,.1.09v1.11a.09.09,0,0,1-.1.1,2.61,2.61,0,0,0-2.21.86.5.5,0,0,0-.14.37v4.74c0,.07,0,.11-.1.11h-1.15a.1.1,0,0,1-.11-.11v-5.09a16.83,16.83,0,0,0-.08-1.94C7191.05,7235.3,7191.08,7235.27,7191.14,7235.27Z" transform="translate(-7161.18 -7155.38)"/><path class="cls-8" d="M7205.35,7241.54l-.17.87c0,.06-.05.09-.13.09h-5.75a.11.11,0,0,1-.12-.12v-9.86c0-.08,0-.12.11-.12h5.53a.11.11,0,0,1,.12.09l.14.86q0,.12-.09.12h-4.46v3.35h4c.06,0,.09,0,.09.08v.89a.08.08,0,0,1-.09.09h-4v3.55h4.74C7205.33,7241.43,7205.36,7241.47,7205.35,7241.54Z" transform="translate(-7161.18 -7155.38)"/><path class="cls-8" d="M7208,7242.5h-1.15a.1.1,0,0,1-.11-.11v-6.12h-1s-.06,0-.06-.07v-.86a.06.06,0,0,1,.07-.07h1v-.9a3.4,3.4,0,0,1,.65-2.22,2.31,2.31,0,0,1,2.43-.62s.06.06.06.13v.89c0,.08,0,.11-.09.08a1.69,1.69,0,0,0-.56-.09q-1.14,0-1.14,1.77v1h2.82v-.92a3.24,3.24,0,0,1,.65-2.19,2.15,2.15,0,0,1,1.72-.75,2.22,2.22,0,0,1,.92.17.11.11,0,0,1,.07.12v.93c0,.08,0,.11-.1.07a1.46,1.46,0,0,0-.71-.16,1.19,1.19,0,0,0-.88.34,2.12,2.12,0,0,0-.32,1.37v1h1.43c.06,0,.09,0,.09.07v.83c0,.07,0,.1-.09.1h-1.43v6.12c0,.07,0,.11-.09.11H7211a.1.1,0,0,1-.11-.11v-6.12h-2.82v6.11Q7208.09,7242.5,7208,7242.5Z" transform="translate(-7161.18 -7155.38)"/><path class="cls-8" d="M7218.69,7239h-3.21a2.66,2.66,0,0,0,.6,1.86,2.35,2.35,0,0,0,1.85.7,4.12,4.12,0,0,0,1.86-.39q.09-.06.09.06v.82c0,.07,0,.12-.07.14a4.65,4.65,0,0,1-2.15.45,3.25,3.25,0,0,1-2.69-1.07,4.07,4.07,0,0,1-.86-2.64,4.13,4.13,0,0,1,.9-2.72,3,3,0,0,1,2.46-1.1,2.67,2.67,0,0,1,2.21.91,3.21,3.21,0,0,1,.72,2.06,4.61,4.61,0,0,1,0,.75.15.15,0,0,1-.12.12A14.76,14.76,0,0,1,7218.69,7239Zm-3.21-.89h2.67a6.89,6.89,0,0,0,1,0,1,1,0,0,0,0-.24,2.09,2.09,0,0,0-.4-1.22,1.48,1.48,0,0,0-1.31-.56,1.64,1.64,0,0,0-1.34.58A2.78,2.78,0,0,0,7215.48,7238.12Z" transform="translate(-7161.18 -7155.38)"/><path class="cls-8" d="M7226.87,7241.36v.87a.12.12,0,0,1-.06.12,4.1,4.1,0,0,1-1.71.3,3.45,3.45,0,0,1-2.71-1.06,3.87,3.87,0,0,1-1-2.68,3.72,3.72,0,0,1,1.07-2.72,3.79,3.79,0,0,1,2.79-1.07,3.55,3.55,0,0,1,1.51.24c0,.05.08.09.08.13l0,.9c0,.07,0,.1-.1.06a3.25,3.25,0,0,0-1.41-.3,2.39,2.39,0,0,0-1.83.75,2.82,2.82,0,0,0-.7,2,2.68,2.68,0,0,0,.73,2,2.47,2.47,0,0,0,1.8.71,3.15,3.15,0,0,0,1.42-.28Q7226.87,7241.27,7226.87,7241.36Z" transform="translate(-7161.18 -7155.38)"/><path class="cls-8" d="M7231.79,7241.58v.68a.18.18,0,0,1-.09.15,2.69,2.69,0,0,1-1.21.24c-1.19,0-1.79-.66-1.79-2v-4.4h-1q-.09,0-.09-.12v-.78c0-.07,0-.1.11-.1h1a11.42,11.42,0,0,1,.15-1.92.14.14,0,0,1,.09-.11l1.11-.16c.07,0,.11,0,.11.06a19.6,19.6,0,0,0-.09,2.13h1.56a.08.08,0,0,1,.09.09v.83a.08.08,0,0,1-.09.08h-1.58v4.31c0,.71.31,1.07.92,1.07a2.06,2.06,0,0,0,.73-.14C7231.76,7241.49,7231.79,7241.51,7231.79,7241.58Z" transform="translate(-7161.18 -7155.38)"/><path class="cls-8" d="M7236.86,7236.62a2.94,2.94,0,0,0-1.68-.5,1.41,1.41,0,0,0-1,.27.81.81,0,0,0-.3.63.88.88,0,0,0,.26.64,3.35,3.35,0,0,0,1.06.57,4.41,4.41,0,0,1,1.64,1,1.82,1.82,0,0,1,.49,1.33,1.86,1.86,0,0,1-.73,1.56,3,3,0,0,1-1.92.57,3.81,3.81,0,0,1-2-.49.16.16,0,0,1-.08-.14V7241q0-.12.09-.06a3.13,3.13,0,0,0,2,.7,1.63,1.63,0,0,0,1-.26.81.81,0,0,0,.35-.68.94.94,0,0,0-.28-.7,3.64,3.64,0,0,0-1.07-.59,4.2,4.2,0,0,1-1.57-.94,1.8,1.8,0,0,1-.47-1.28,1.85,1.85,0,0,1,.66-1.46,2.66,2.66,0,0,1,1.83-.58,3.66,3.66,0,0,1,1.74.34.14.14,0,0,1,.08.15v.93C7237,7236.64,7236.93,7236.67,7236.86,7236.62Z" transform="translate(-7161.18 -7155.38)"/></svg>