<svg id="Calque_1" data-name="Calque 1" xmlns="http://www.w3.org/2000/svg" xmlns:xlink="http://www.w3.org/1999/xlink" viewBox="0 0 67.01 82.02"><defs><style>.cls-1{mask:url(#mask);filter:url(#luminosity-noclip-2);}.cls-2{mix-blend-mode:multiply;}.cls-2,.cls-4{fill:url(#Áåçûìÿííûé_ãðàäèåíò_24);}.cls-3{mask:url(#mask-2);}.cls-5{mask:url(#mask-3);}.cls-6{fill:#00005b;}.cls-7{fill:#9797fd;}.cls-8{fill:#3e425c;}.cls-9{filter:url(#luminosity-noclip);}</style><filter id="luminosity-noclip" x="7167.92" y="-15391.5" width="67.01" height="32766" filterUnits="userSpaceOnUse" color-interpolation-filters="sRGB"><feFlood flood-color="#fff" result="bg"/><feBlend in="SourceGraphic" in2="bg"/></filter><mask id="mask" x="7167.92" y="-15391.5" width="67.01" height="32766" maskUnits="userSpaceOnUse"><g class="cls-9"/></mask><radialGradient id="Áåçûìÿííûé_ãðàäèåíò_24" cx="7201.42" cy="7197.46" r="33.5" gradientTransform="translate(13350.62 -917.42) rotate(82.17)" gradientUnits="userSpaceOnUse"><stop offset="0" stop-color="#fff"/><stop offset="1"/></radialGradient><filter id="luminosity-noclip-2" x="7167.92" y="7163.96" width="67.01" height="67.01" filterUnits="userSpaceOnUse" color-interpolation-filters="sRGB"><feFlood flood-color="#fff" result="bg"/><feBlend in="SourceGraphic" in2="bg"/></filter><mask id="mask-2" x="7167.92" y="7163.96" width="67.01" height="67.01" maskUnits="userSpaceOnUse"><g class="cls-1"><circle class="cls-2" cx="7201.42" cy="7197.46" r="33.5" transform="translate(-910.08 13351.12) rotate(-82.17)"/></g></mask><mask id="mask-3" x="0" y="4.57" width="67.01" height="67.01" maskUnits="userSpaceOnUse"><g transform="translate(-7167.92 -7159.39)"><g class="cls-3"><circle class="cls-4" cx="7201.42" cy="7197.46" r="33.5" transform="translate(-910.08 13351.12) rotate(-82.17)"/></g></g></mask></defs><g class="cls-5"><path d="M7234.93,7197.46a33.51,33.51,0,1,1-33.51-33.5,33.51,33.51,0,0,1,33.51,33.5" transform="translate(-7167.92 -7159.39)"/></g><rect class="cls-6" x="8.51" width="48.4" height="48.4" rx="10.31"/><path class="cls-7" d="M7188,7193.85v-20.46a.19.19,0,0,1,.22-.22q2.39-.06,6.06-.06c2.89,0,5,.64,6.35,1.94a6.41,6.41,0,0,1,2,4.8,6,6,0,0,1-2.51,5.28,10.91,10.91,0,0,1-6.31,1.72H7192v7a.22.22,0,0,1-.25.25h-3.49C7188.11,7194.07,7188,7194,7188,7193.85Zm4-17.73v7.72a20.28,20.28,0,0,0,2,.06,5.79,5.79,0,0,0,3.4-.92,3.46,3.46,0,0,0,1.3-3,3.61,3.61,0,0,0-1.14-2.86,4.87,4.87,0,0,0-3.31-1h-1.05l-.85,0Z" transform="translate(-7167.92 -7159.39)"/><path class="cls-7" d="M7204.19,7178.79h3.11a.36.36,0,0,1,.35.28,8.3,8.3,0,0,1,.34,1.85,6,6,0,0,1,5-2.42.2.2,0,0,1,.22.22V7182a.22.22,0,0,1-.25.25,5.58,5.58,0,0,0-4.55,1.5,1,1,0,0,0-.28.76v9.35a.22.22,0,0,1-.25.25h-3.46c-.18,0-.28-.08-.28-.25v-10.58c0-1.63-.05-3-.16-4.23C7204,7178.86,7204.05,7178.79,7204.19,7178.79Z" transform="translate(-7167.92 -7159.39)"/><path class="cls-8" d="M7179.78,7229.19v-7.94c0-.06,0-.09.07-.09l2.06,0a3.3,3.3,0,0,1,2.33.72,2.63,2.63,0,0,1,.29,3.35,2.56,2.56,0,0,1-1.18.87,5.12,5.12,0,0,1-1.63.25c-.51,0-.79,0-.84,0v2.87s0,.08-.09.08h-.92C7179.81,7229.26,7179.78,7229.24,7179.78,7229.19Zm1.1-7.18v3.46h.89a2.64,2.64,0,0,0,1.54-.42,1.52,1.52,0,0,0,.61-1.36,1.59,1.59,0,0,0-.53-1.28,2.19,2.19,0,0,0-1.48-.46A9.69,9.69,0,0,0,7180.88,7222Z" transform="translate(-7167.92 -7159.39)"/><path class="cls-8" d="M7186,7223.46h.85a.11.11,0,0,1,.11.09,3.23,3.23,0,0,1,.09.74,2.38,2.38,0,0,1,1.93-.95.07.07,0,0,1,.08.07v.89c0,.06,0,.09-.08.09a2.09,2.09,0,0,0-1.77.69.41.41,0,0,0-.11.3v3.8a.07.07,0,0,1-.08.08h-.93c-.06,0-.09,0-.09-.08v-4.09a13.35,13.35,0,0,0-.06-1.56S7186,7223.46,7186,7223.46Z" transform="translate(-7167.92 -7159.39)"/><path class="cls-8" d="M7193.09,7226.46h-2.58a2.08,2.08,0,0,0,.49,1.49,1.86,1.86,0,0,0,1.48.57,3.31,3.31,0,0,0,1.49-.32c.05,0,.07,0,.07.05v.66c0,.06,0,.1-.06.11a3.74,3.74,0,0,1-1.72.36,2.61,2.61,0,0,1-2.16-.86,3.26,3.26,0,0,1-.69-2.11,3.31,3.31,0,0,1,.73-2.19,2.4,2.4,0,0,1,2-.88,2.13,2.13,0,0,1,1.78.73,2.58,2.58,0,0,1,.58,1.66,4.33,4.33,0,0,1,0,.6c0,.05-.05.09-.1.09A10.24,10.24,0,0,1,7193.09,7226.46Zm-2.58-.71h2.15a7.47,7.47,0,0,0,.75,0,.69.69,0,0,0,0-.2,1.69,1.69,0,0,0-.32-1,1.22,1.22,0,0,0-1.06-.45,1.33,1.33,0,0,0-1.07.47A2.32,2.32,0,0,0,7190.51,7225.75Z" transform="translate(-7167.92 -7159.39)"/><path class="cls-8" d="M7196.55,7229.26h-.93c-.05,0-.08,0-.08-.09v-4.44c0-.49,0-.89,0-1.2,0,0,0-.07.07-.07h.82a.12.12,0,0,1,.1.06,3.71,3.71,0,0,1,.08.57,2.52,2.52,0,0,1,1.8-.75,1.71,1.71,0,0,1,1.6.88,2.82,2.82,0,0,1,2-.88,2,2,0,0,1,1.4.53,2.32,2.32,0,0,1,.58,1.77v3.54s0,.08-.1.08h-.9a.08.08,0,0,1-.09-.09v-3.53a1.68,1.68,0,0,0-.3-1,1,1,0,0,0-.89-.4,1.79,1.79,0,0,0-1.44.72,4.67,4.67,0,0,1,.05.72v3.53a.07.07,0,0,1-.08.08h-.92c-.06,0-.09,0-.09-.08v-3.55a1.63,1.63,0,0,0-.3-1,1.09,1.09,0,0,0-.88-.38,1.76,1.76,0,0,0-1.4.7v4.27A.07.07,0,0,1,7196.55,7229.26Z" transform="translate(-7167.92 -7159.39)"/><path class="cls-8" d="M7206,7222.16a.6.6,0,0,1-.44-.16.64.64,0,0,1-.17-.45.58.58,0,0,1,.62-.61.55.55,0,0,1,.44.17.72.72,0,0,1,0,.89A.61.61,0,0,1,7206,7222.16Zm-.55,7v-5.62c0-.06,0-.09.08-.09h.93c.06,0,.08,0,.08.07v5.65s0,.08-.08.08h-.91C7205.45,7229.26,7205.42,7229.23,7205.42,7229.17Z" transform="translate(-7167.92 -7159.39)"/><path class="cls-8" d="M7211.31,7226.46h-2.57a2.08,2.08,0,0,0,.48,1.49,1.88,1.88,0,0,0,1.48.57,3.25,3.25,0,0,0,1.49-.32c.05,0,.08,0,.08.05v.66c0,.06,0,.1-.06.11a3.75,3.75,0,0,1-1.73.36,2.61,2.61,0,0,1-2.15-.86,3.22,3.22,0,0,1-.7-2.11,3.36,3.36,0,0,1,.73-2.19,2.42,2.42,0,0,1,2-.88,2.12,2.12,0,0,1,1.77.73,2.59,2.59,0,0,1,.59,1.66,4,4,0,0,1,0,.6c0,.05,0,.09-.1.09A10.24,10.24,0,0,1,7211.31,7226.46Zm-2.57-.71h2.14c.46,0,.71,0,.76,0a.87.87,0,0,0,0-.2,1.69,1.69,0,0,0-.32-1,1.19,1.19,0,0,0-1.05-.45,1.32,1.32,0,0,0-1.07.47A2.24,2.24,0,0,0,7208.74,7225.75Z" transform="translate(-7167.92 -7159.39)"/><path class="cls-8" d="M7213.77,7223.46h.84c.06,0,.09,0,.11.09a3.09,3.09,0,0,1,.1.74,2.35,2.35,0,0,1,1.92-.95c.06,0,.08,0,.08.07v.89c0,.06,0,.09-.08.09a2.11,2.11,0,0,0-1.77.69.41.41,0,0,0-.11.3v3.8s0,.08-.08.08h-.93a.07.07,0,0,1-.08-.08v-4.09q0-1-.06-1.56S7213.72,7223.46,7213.77,7223.46Z" transform="translate(-7167.92 -7159.39)"/><path class="cls-8" d="M7220.84,7226.46h-2.57a2,2,0,0,0,.48,1.49,1.88,1.88,0,0,0,1.48.57,3.28,3.28,0,0,0,1.49-.32c.05,0,.07,0,.07.05v.66c0,.06,0,.1-.06.11a3.71,3.71,0,0,1-1.72.36,2.63,2.63,0,0,1-2.16-.86,3.26,3.26,0,0,1-.69-2.11,3.31,3.31,0,0,1,.73-2.19,2.42,2.42,0,0,1,2-.88,2.12,2.12,0,0,1,1.77.73,2.58,2.58,0,0,1,.58,1.66,4.33,4.33,0,0,1,0,.6c0,.05-.05.09-.1.09A10.24,10.24,0,0,1,7220.84,7226.46Zm-2.57-.71h2.14c.46,0,.71,0,.76,0a.87.87,0,0,0,0-.2,1.69,1.69,0,0,0-.32-1,1.19,1.19,0,0,0-1-.45,1.32,1.32,0,0,0-1.07.47A2.16,2.16,0,0,0,7218.27,7225.75Z" transform="translate(-7167.92 -7159.39)"/><path class="cls-8" d="M7193.32,7241.22v-7.94c0-.06,0-.08.07-.08.54,0,1.23,0,2.06,0a3.26,3.26,0,0,1,2.32.72,2.42,2.42,0,0,1,.77,1.83,2.46,2.46,0,0,1-.47,1.52,2.52,2.52,0,0,1-1.19.87,5.07,5.07,0,0,1-1.63.25c-.5,0-.78,0-.84,0v2.87a.07.07,0,0,1-.08.08h-.93S7193.32,7241.27,7193.32,7241.22Zm1.09-7.18v3.46h.89a2.67,2.67,0,0,0,1.55-.42,1.54,1.54,0,0,0,.61-1.36,1.56,1.56,0,0,0-.54-1.28,2.18,2.18,0,0,0-1.47-.46A9.94,9.94,0,0,0,7194.41,7234Z" transform="translate(-7167.92 -7159.39)"/><path class="cls-8" d="M7199.55,7235.49h.84c.06,0,.09,0,.11.09a3.09,3.09,0,0,1,.1.74,2.35,2.35,0,0,1,1.92-.95c.06,0,.09,0,.09.08v.89c0,.05,0,.08-.09.08a2.11,2.11,0,0,0-1.77.69.41.41,0,0,0-.11.3v3.8c0,.05,0,.08-.08.08h-.93a.07.07,0,0,1-.08-.08v-4.09c0-.65,0-1.17-.06-1.55C7199.48,7235.52,7199.5,7235.49,7199.55,7235.49Z" transform="translate(-7167.92 -7159.39)"/><path class="cls-8" d="M7205.81,7235.37a2.63,2.63,0,0,1,2,.84,3.17,3.17,0,0,1,.76,2.17,3.09,3.09,0,0,1-.78,2.21,2.67,2.67,0,0,1-2,.82,2.56,2.56,0,0,1-2.11-.89,3.28,3.28,0,0,1-.73-2.13,3.05,3.05,0,0,1,.8-2.16A2.68,2.68,0,0,1,7205.81,7235.37Zm-.05.8a1.5,1.5,0,0,0-1.24.59,2.55,2.55,0,0,0-.47,1.61,2.64,2.64,0,0,0,.47,1.62,1.52,1.52,0,0,0,1.3.63,1.59,1.59,0,0,0,1.2-.56,2.43,2.43,0,0,0,.49-1.65,2.71,2.71,0,0,0-.44-1.61A1.5,1.5,0,0,0,7205.76,7236.17Z" transform="translate(-7167.92 -7159.39)"/></svg>