<svg id="Calque_1" data-name="Calque 1" xmlns="http://www.w3.org/2000/svg" xmlns:xlink="http://www.w3.org/1999/xlink" viewBox="0 0 83.55 89.25"><defs><style>.cls-1{mask:url(#mask);filter:url(#luminosity-noclip-2);}.cls-2{mix-blend-mode:multiply;}.cls-2,.cls-4{fill:url(#Áåçûìÿííûé_ãðàäèåíò_33);}.cls-3{mask:url(#mask-2);}.cls-5{mask:url(#mask-3);}.cls-6{fill:#320000;}.cls-7{fill:#fd9801;}.cls-8{fill:#3e425c;}.cls-9{filter:url(#luminosity-noclip);}</style><filter id="luminosity-noclip" x="7157.73" y="-15391.5" width="83.55" height="32766" filterUnits="userSpaceOnUse" color-interpolation-filters="sRGB"><feFlood flood-color="#fff" result="bg"/><feBlend in="SourceGraphic" in2="bg"/></filter><mask id="mask" x="7157.73" y="-15391.5" width="83.55" height="32766" maskUnits="userSpaceOnUse"><g class="cls-9"/></mask><radialGradient id="Áåçûìÿííûé_ãðàäèåíò_33" cx="7199.5" cy="7202.35" r="41.77" gradientTransform="translate(13155.62 -1057.88) rotate(80.78)" gradientUnits="userSpaceOnUse"><stop offset="0" stop-color="#fff"/><stop offset="1"/></radialGradient><filter id="luminosity-noclip-2" x="7157.73" y="7160.57" width="83.55" height="83.55" filterUnits="userSpaceOnUse" color-interpolation-filters="sRGB"><feFlood flood-color="#fff" result="bg"/><feBlend in="SourceGraphic" in2="bg"/></filter><mask id="mask-2" x="7157.73" y="7160.57" width="83.55" height="83.55" maskUnits="userSpaceOnUse"><g class="cls-1"><circle class="cls-2" cx="7199.5" cy="7202.35" r="41.77" transform="translate(-1063.08 13155.2) rotate(-80.78)"/></g></mask><mask id="mask-3" x="0" y="5.7" width="83.55" height="83.55" maskUnits="userSpaceOnUse"><g transform="translate(-7157.73 -7154.88)"><g class="cls-3"><circle class="cls-4" cx="7199.5" cy="7202.35" r="41.77" transform="translate(-1063.08 13155.2) rotate(-80.78)"/></g></g></mask></defs><g class="cls-5"><circle cx="7199.5" cy="7202.35" r="41.77" transform="translate(-8220.81 6000.32) rotate(-80.78)"/></g><rect class="cls-6" x="11.73" width="60.34" height="60.34" rx="12.86"/><path class="cls-7" d="M7200.52,7190.93h-9.08l-2.27,6.85c0,.21-.17.31-.43.31h-4.11q-.39,0-.27-.39l8.14-23.24a6.67,6.67,0,0,0,.35-2.19q0-.24.27-.24h5.64a.36.36,0,0,1,.31.2l9.08,25.51c.08.24,0,.35-.24.35h-4.61a.41.41,0,0,1-.4-.27Zm-8.06-3.79h7c-.1-.37-.65-2-1.62-5s-1.63-5-1.94-6.09h0Q7195.44,7178.07,7192.46,7187.14Z" transform="translate(-7157.73 -7154.88)"/><path class="cls-7" d="M7214.21,7175.09a2.7,2.7,0,1,1-1.88-4.58,2.48,2.48,0,0,1,1.88.74,2.69,2.69,0,0,1,.71,1.92A2.6,2.6,0,0,1,7214.21,7175.09Zm-4.42,22.65v-18.39a.27.27,0,0,1,.31-.31h4.35a.27.27,0,0,1,.31.31v18.43a.27.27,0,0,1-.31.31h-4.31A.31.31,0,0,1,7209.79,7197.74Z" transform="translate(-7157.73 -7154.88)"/><path class="cls-8" d="M7173.75,7232v9.87c0,.08,0,.12-.11.12h-1.14a.11.11,0,0,1-.12-.12V7232a.1.1,0,0,1,.11-.11h1.15A.1.1,0,0,1,7173.75,7232Z" transform="translate(-7157.73 -7154.88)"/><path class="cls-8" d="M7175.71,7240.5v-9.34c0-.07,0-.1.11-.1H7177c.07,0,.1,0,.1.11v9.31a.83.83,0,0,0,.13.53.51.51,0,0,0,.38.14,1.49,1.49,0,0,0,.36,0s.08,0,.08.09v.7a.1.1,0,0,1-.09.12,1.63,1.63,0,0,1-.81.14,1.41,1.41,0,0,1-1-.36A1.76,1.76,0,0,1,7175.71,7240.5Z" transform="translate(-7157.73 -7154.88)"/><path class="cls-8" d="M7179.18,7240.5v-9.34c0-.07,0-.1.1-.1h1.14a.1.1,0,0,1,.11.11v9.31a.84.84,0,0,0,.12.53.53.53,0,0,0,.39.14,1.49,1.49,0,0,0,.36,0c.05,0,.07,0,.07.09v.7a.1.1,0,0,1-.09.12,1.63,1.63,0,0,1-.81.14,1.41,1.41,0,0,1-1-.36A1.76,1.76,0,0,1,7179.18,7240.5Z" transform="translate(-7157.73 -7154.88)"/><path class="cls-8" d="M7188.52,7234.86v5.54a11.35,11.35,0,0,0,.09,1.51q0,.09-.09.09h-1a.13.13,0,0,1-.14-.09,2.25,2.25,0,0,1-.07-.62,3,3,0,0,1-2.19.86,2.55,2.55,0,0,1-1.79-.64,2.82,2.82,0,0,1-.71-2.18v-4.47c0-.06,0-.09.11-.09h1.16a.08.08,0,0,1,.09.09v4.36a2.1,2.1,0,0,0,.39,1.36,1.36,1.36,0,0,0,1.14.49,2.1,2.1,0,0,0,1.69-.77v-5.44c0-.06,0-.09.11-.09h1.15A.08.08,0,0,1,7188.52,7234.86Z" transform="translate(-7157.73 -7154.88)"/><path class="cls-8" d="M7194.21,7236.12a2.94,2.94,0,0,0-1.68-.5,1.41,1.41,0,0,0-1,.27.81.81,0,0,0-.3.63.88.88,0,0,0,.26.64,3.35,3.35,0,0,0,1.06.57,4.41,4.41,0,0,1,1.64,1,1.82,1.82,0,0,1,.49,1.33,1.87,1.87,0,0,1-.74,1.56,3,3,0,0,1-1.92.57,3.81,3.81,0,0,1-2-.49.15.15,0,0,1-.07-.14v-1.05q0-.12.09-.06a3.13,3.13,0,0,0,2,.7,1.63,1.63,0,0,0,1-.26.81.81,0,0,0,.35-.68,1,1,0,0,0-.29-.7,3.55,3.55,0,0,0-1.06-.59,4.25,4.25,0,0,1-1.58-.94,1.8,1.8,0,0,1-.46-1.28,1.85,1.85,0,0,1,.66-1.46,2.66,2.66,0,0,1,1.83-.58,3.66,3.66,0,0,1,1.74.34c.05,0,.07.07.07.15v.93C7194.31,7236.14,7194.28,7236.17,7194.21,7236.12Z" transform="translate(-7157.73 -7154.88)"/><path class="cls-8" d="M7199.32,7241.08v.68a.18.18,0,0,1-.09.15,2.69,2.69,0,0,1-1.21.24c-1.19,0-1.79-.66-1.79-2v-4.4h-1q-.09,0-.09-.12v-.78c0-.07,0-.1.11-.1h1a11.42,11.42,0,0,1,.15-1.92.14.14,0,0,1,.09-.11l1.11-.16c.07,0,.11,0,.11.06a19.6,19.6,0,0,0-.09,2.13h1.56a.08.08,0,0,1,.09.09v.83c0,.05,0,.08-.09.08h-1.58v4.31c0,.71.31,1.07.92,1.07a2.06,2.06,0,0,0,.73-.14C7199.29,7241,7199.32,7241,7199.32,7241.08Z" transform="translate(-7157.73 -7154.88)"/><path class="cls-8" d="M7200.43,7234.77h1a.13.13,0,0,1,.14.1,4,4,0,0,1,.12.93,3,3,0,0,1,2.4-1.18c.07,0,.1,0,.1.09v1.11c0,.07,0,.1-.1.1a2.62,2.62,0,0,0-2.21.86.49.49,0,0,0-.13.37v4.74a.1.1,0,0,1-.11.11h-1.15a.1.1,0,0,1-.11-.11v-5.09c0-.81,0-1.46-.07-1.94C7200.35,7234.8,7200.37,7234.77,7200.43,7234.77Z" transform="translate(-7157.73 -7154.88)"/><path class="cls-8" d="M7210.33,7237.43v3.19a6.19,6.19,0,0,0,.05.76.06.06,0,0,1-.05.06,6.08,6.08,0,0,1-2.91.71,3.26,3.26,0,0,1-2.05-.59,2,2,0,0,1-.78-1.74,1.89,1.89,0,0,1,.93-1.71,4.71,4.71,0,0,1,2.46-.57,8.22,8.22,0,0,1,1,0v-.4a1.67,1.67,0,0,0-.06-.44,2.34,2.34,0,0,0-.21-.48,1.12,1.12,0,0,0-.5-.42,2,2,0,0,0-.85-.17,4.07,4.07,0,0,0-2,.55s0,0-.07,0a.08.08,0,0,1,0-.06v-.88c0-.05,0-.08.08-.12a4.76,4.76,0,0,1,2.29-.55,2.57,2.57,0,0,1,2,.77A3,3,0,0,1,7210.33,7237.43Zm-1.32,3.47v-2.43c-.36,0-.68-.06-1-.06a3,3,0,0,0-1.57.36,1.18,1.18,0,0,0-.55,1,1.32,1.32,0,0,0,.43,1,1.89,1.89,0,0,0,1.33.4A3,3,0,0,0,7209,7240.9Z" transform="translate(-7157.73 -7154.88)"/><path class="cls-8" d="M7215.36,7241.08v.68a.18.18,0,0,1-.09.15,2.73,2.73,0,0,1-1.22.24c-1.19,0-1.78-.66-1.78-2v-4.4h-1q-.09,0-.09-.12v-.78c0-.07,0-.1.1-.1h1a11.42,11.42,0,0,1,.15-1.92.14.14,0,0,1,.09-.11l1.11-.16c.07,0,.1,0,.1.06a19.6,19.6,0,0,0-.09,2.13h1.56a.08.08,0,0,1,.09.09v.83c0,.05,0,.08-.09.08h-1.57v4.31c0,.71.3,1.07.91,1.07a2.11,2.11,0,0,0,.74-.14C7215.33,7241,7215.36,7241,7215.36,7241.08Z" transform="translate(-7157.73 -7154.88)"/><path class="cls-8" d="M7219.54,7234.62a3.29,3.29,0,0,1,2.55,1.05,3.89,3.89,0,0,1,.95,2.7,3.82,3.82,0,0,1-1,2.75,3.31,3.31,0,0,1-2.53,1,3.23,3.23,0,0,1-2.64-1.11,4.09,4.09,0,0,1-.9-2.65,3.79,3.79,0,0,1,1-2.7A3.34,3.34,0,0,1,7219.54,7234.62Zm-.06,1a1.87,1.87,0,0,0-1.54.74,3.16,3.16,0,0,0-.59,2,3.29,3.29,0,0,0,.59,2,2,2,0,0,0,3.11.08,3,3,0,0,0,.62-2.06,3.37,3.37,0,0,0-.55-2A1.87,1.87,0,0,0,7219.48,7235.61Z" transform="translate(-7157.73 -7154.88)"/><path class="cls-8" d="M7224.42,7234.77h1.05a.12.12,0,0,1,.13.1,4,4,0,0,1,.12.93,3,3,0,0,1,2.4-1.18c.07,0,.11,0,.11.09v1.11c0,.07,0,.1-.11.1a2.6,2.6,0,0,0-2.2.86.5.5,0,0,0-.14.37v4.74c0,.07,0,.11-.1.11h-1.16c-.07,0-.1,0-.1-.11v-5.09c0-.81,0-1.46-.08-1.94C7224.33,7234.8,7224.36,7234.77,7224.42,7234.77Z" transform="translate(-7157.73 -7154.88)"/></svg>