<svg id="Calque_1" data-name="Calque 1" xmlns="http://www.w3.org/2000/svg" xmlns:xlink="http://www.w3.org/1999/xlink" viewBox="0 0 83.55 90.69"><defs><style>.cls-1{mask:url(#mask);filter:url(#luminosity-noclip-2);}.cls-2{mix-blend-mode:multiply;}.cls-2,.cls-4{fill:url(#Áåçûìÿííûé_ãðàäèåíò_32);}.cls-3{mask:url(#mask-2);}.cls-5{mask:url(#mask-3);}.cls-6{fill:#001e36;}.cls-7{fill:#33a6fd;}.cls-8{fill:#3e425c;}.cls-9{filter:url(#luminosity-noclip);}</style><filter id="luminosity-noclip" x="7157.73" y="-15391.5" width="83.55" height="32766" filterUnits="userSpaceOnUse" color-interpolation-filters="sRGB"><feFlood flood-color="#fff" result="bg"/><feBlend in="SourceGraphic" in2="bg"/></filter><mask id="mask" x="7157.73" y="-15391.5" width="83.55" height="32766" maskUnits="userSpaceOnUse"><g class="cls-9"/></mask><radialGradient id="Áåçûìÿííûé_ãðàäèåíò_32" cx="7199.5" cy="7202.26" r="41.77" gradientTransform="translate(13155.53 -1057.95) rotate(80.78)" gradientUnits="userSpaceOnUse"><stop offset="0" stop-color="#fff"/><stop offset="1"/></radialGradient><filter id="luminosity-noclip-2" x="7157.73" y="7160.48" width="83.55" height="83.55" filterUnits="userSpaceOnUse" color-interpolation-filters="sRGB"><feFlood flood-color="#fff" result="bg"/><feBlend in="SourceGraphic" in2="bg"/></filter><mask id="mask-2" x="7157.73" y="7160.48" width="83.55" height="83.55" maskUnits="userSpaceOnUse"><g class="cls-1"><circle class="cls-2" cx="7199.5" cy="7202.26" r="41.77" transform="translate(-1062.99 13155.12) rotate(-80.78)"/></g></mask><mask id="mask-3" x="0" y="5.7" width="83.55" height="83.55" maskUnits="userSpaceOnUse"><g transform="translate(-7157.73 -7154.79)"><g class="cls-3"><circle class="cls-4" cx="7199.5" cy="7202.26" r="41.77" transform="translate(-1062.99 13155.12) rotate(-80.78)"/></g></g></mask></defs><g class="cls-5"><circle cx="7199.5" cy="7202.26" r="41.77" transform="translate(-8220.72 6000.33) rotate(-80.78)"/></g><rect class="cls-6" x="11.6" width="60.34" height="60.34" rx="12.86"/><path class="cls-7" d="M7183.18,7197.56v-25.51a.24.24,0,0,1,.28-.28q3-.08,7.55-.08,5.4,0,7.92,2.43a8,8,0,0,1,2.53,6,7.43,7.43,0,0,1-3.13,6.57,13.54,13.54,0,0,1-7.87,2.15h-2.31v8.69a.27.27,0,0,1-.31.31h-4.34C7183.29,7197.83,7183.18,7197.74,7183.18,7197.56Zm5-22.11v9.63a25,25,0,0,0,2.55.08,7.16,7.16,0,0,0,4.24-1.16,4.33,4.33,0,0,0,1.63-3.78,4.51,4.51,0,0,0-1.43-3.56,6.12,6.12,0,0,0-4.13-1.25l-1.31,0c-.43,0-.78,0-1.06,0Z" transform="translate(-7157.73 -7154.79)"/><path class="cls-7" d="M7214.33,7183.28a8.46,8.46,0,0,0-4.58-1.37,3.23,3.23,0,0,0-2,.51,1.51,1.51,0,0,0-.65,1.21,1.64,1.64,0,0,0,.55,1.23,7.82,7.82,0,0,0,2.31,1.23,12.71,12.71,0,0,1,4.56,2.65,5,5,0,0,1,1.31,3.58,5.24,5.24,0,0,1-2,4.28,8.46,8.46,0,0,1-5.46,1.62,11.2,11.2,0,0,1-5.63-1.25.36.36,0,0,1-.24-.39v-3.64a.24.24,0,0,1,.1-.21.13.13,0,0,1,.18,0,9,9,0,0,0,5.44,1.87,3.78,3.78,0,0,0,2.09-.48,1.49,1.49,0,0,0,.72-1.28,1.87,1.87,0,0,0-.58-1.39,7.7,7.7,0,0,0-2.31-1.23,11.28,11.28,0,0,1-4.36-2.6,5,5,0,0,1-1.24-3.5,5.25,5.25,0,0,1,1.84-4.07,7.61,7.61,0,0,1,5.25-1.64,11.1,11.1,0,0,1,4.89.86c.13.07.19.24.19.5V7183C7214.68,7183.36,7214.56,7183.43,7214.33,7183.28Z" transform="translate(-7157.73 -7154.79)"/><path class="cls-8" d="M7167.78,7241.82v-9.9c0-.07,0-.11.09-.11.68,0,1.54,0,2.57,0a4.05,4.05,0,0,1,2.9.91,3,3,0,0,1,.95,2.28,3.06,3.06,0,0,1-.58,1.89,3.24,3.24,0,0,1-1.48,1.08,6.1,6.1,0,0,1-2,.31c-.63,0-1,0-1.05,0v3.57a.1.1,0,0,1-.11.11h-1.15C7167.82,7241.91,7167.78,7241.88,7167.78,7241.82Zm1.37-9v4.33h.18l.38,0h.55a3.35,3.35,0,0,0,1.92-.52,1.91,1.91,0,0,0,.76-1.7,2,2,0,0,0-.67-1.6,2.71,2.71,0,0,0-1.83-.56C7169.74,7232.84,7169.31,7232.85,7169.15,7232.86Z" transform="translate(-7157.73 -7154.79)"/><path class="cls-8" d="M7175.67,7241.8v-10.73c0-.07,0-.1.09-.1h1.17c.06,0,.09,0,.09.1v4.21a3.29,3.29,0,0,1,2.15-.75,2.84,2.84,0,0,1,.88.14,2.78,2.78,0,0,1,.8.45,2.13,2.13,0,0,1,.62.92,4.16,4.16,0,0,1,.23,1.45v4.31c0,.07,0,.11-.1.11h-1.14c-.08,0-.12,0-.12-.11v-4.31a2.14,2.14,0,0,0-.41-1.38,1.37,1.37,0,0,0-1.12-.5,2.64,2.64,0,0,0-1.79.72v5.49a.08.08,0,0,1-.09.09h-1.15A.1.1,0,0,1,7175.67,7241.8Z" transform="translate(-7157.73 -7154.79)"/><path class="cls-8" d="M7186.65,7234.53a3.29,3.29,0,0,1,2.55,1.05,3.89,3.89,0,0,1,.95,2.7,3.82,3.82,0,0,1-1,2.75,3.31,3.31,0,0,1-2.53,1A3.23,3.23,0,0,1,7184,7241a4.09,4.09,0,0,1-.9-2.65,3.79,3.79,0,0,1,1-2.7A3.34,3.34,0,0,1,7186.65,7234.53Zm-.06,1a1.87,1.87,0,0,0-1.54.74,3.16,3.16,0,0,0-.59,2,3.29,3.29,0,0,0,.59,2,2,2,0,0,0,3.11.08,3,3,0,0,0,.62-2.06,3.37,3.37,0,0,0-.55-2A1.87,1.87,0,0,0,7186.59,7235.52Z" transform="translate(-7157.73 -7154.79)"/><path class="cls-8" d="M7194.87,7241v.67a.18.18,0,0,1-.09.15,2.69,2.69,0,0,1-1.21.24c-1.19,0-1.79-.66-1.79-2v-4.4h-1q-.09,0-.09-.12v-.78c0-.07,0-.1.11-.1h1a11.42,11.42,0,0,1,.15-1.92.12.12,0,0,1,.09-.1l1.11-.17c.07,0,.11,0,.11.06a19.6,19.6,0,0,0-.09,2.13h1.56a.08.08,0,0,1,.09.09v.83c0,.06,0,.08-.09.08h-1.58V7240c0,.71.31,1.07.92,1.07a2.06,2.06,0,0,0,.73-.14C7194.84,7240.9,7194.87,7240.93,7194.87,7241Z" transform="translate(-7157.73 -7154.79)"/><path class="cls-8" d="M7199.06,7234.53a3.27,3.27,0,0,1,2.54,1.05,4.35,4.35,0,0,1,0,5.45,3.33,3.33,0,0,1-2.54,1,3.19,3.19,0,0,1-2.63-1.11,4,4,0,0,1-.91-2.65,3.79,3.79,0,0,1,1-2.7A3.36,3.36,0,0,1,7199.06,7234.53Zm-.06,1a1.89,1.89,0,0,0-1.55.74,3.16,3.16,0,0,0-.58,2,3.29,3.29,0,0,0,.58,2,1.91,1.91,0,0,0,1.62.78,1.94,1.94,0,0,0,1.5-.7,3,3,0,0,0,.62-2.06,3.38,3.38,0,0,0-.56-2A1.85,1.85,0,0,0,7199,7235.52Z" transform="translate(-7157.73 -7154.79)"/><path class="cls-8" d="M7207.86,7236a2.94,2.94,0,0,0-1.68-.5,1.41,1.41,0,0,0-1,.27.81.81,0,0,0-.3.64.85.85,0,0,0,.27.63,3,3,0,0,0,1.05.57,4.55,4.55,0,0,1,1.64,1,1.82,1.82,0,0,1,.49,1.33,1.86,1.86,0,0,1-.73,1.56,3,3,0,0,1-1.92.57,3.81,3.81,0,0,1-2-.49.16.16,0,0,1-.08-.14v-1.05q0-.12.09-.06a3.13,3.13,0,0,0,2,.7,1.61,1.61,0,0,0,1-.26.81.81,0,0,0,.35-.68.94.94,0,0,0-.28-.7,3.64,3.64,0,0,0-1.07-.59,4.2,4.2,0,0,1-1.57-.94,1.8,1.8,0,0,1-.47-1.28,1.85,1.85,0,0,1,.66-1.46,2.66,2.66,0,0,1,1.83-.58,3.53,3.53,0,0,1,1.74.35s.08.06.08.15v.93C7208,7236.05,7207.93,7236.08,7207.86,7236Z" transform="translate(-7157.73 -7154.79)"/><path class="cls-8" d="M7209.68,7241.8v-10.73c0-.07,0-.1.09-.1h1.17c.06,0,.09,0,.09.1v4.21a3.27,3.27,0,0,1,2.14-.75,2.91,2.91,0,0,1,.89.14,2.78,2.78,0,0,1,.8.45,2.13,2.13,0,0,1,.62.92,4.16,4.16,0,0,1,.23,1.45v4.31a.1.1,0,0,1-.11.11h-1.14c-.08,0-.12,0-.12-.11v-4.31a2.14,2.14,0,0,0-.4-1.38,1.39,1.39,0,0,0-1.13-.5,2.62,2.62,0,0,0-1.78.72v5.49a.08.08,0,0,1-.09.09h-1.16C7209.71,7241.91,7209.68,7241.87,7209.68,7241.8Z" transform="translate(-7157.73 -7154.79)"/><path class="cls-8" d="M7220.66,7234.53a3.25,3.25,0,0,1,2.54,1.05,4.35,4.35,0,0,1,0,5.45,3.33,3.33,0,0,1-2.54,1A3.21,3.21,0,0,1,7218,7241a4.1,4.1,0,0,1-.91-2.65,3.76,3.76,0,0,1,1-2.7A3.32,3.32,0,0,1,7220.66,7234.53Zm-.06,1a1.89,1.89,0,0,0-1.55.74,3.16,3.16,0,0,0-.58,2,3.29,3.29,0,0,0,.58,2,2,2,0,0,0,3.12.08,3,3,0,0,0,.62-2.06,3.38,3.38,0,0,0-.56-2A1.85,1.85,0,0,0,7220.6,7235.52Z" transform="translate(-7157.73 -7154.79)"/><path class="cls-8" d="M7228.53,7234.53a3.33,3.33,0,0,1,2.58,1,3.7,3.7,0,0,1,.94,2.59,3.65,3.65,0,0,1-1.17,2.91,4.41,4.41,0,0,1-4,.86v3.35c0,.07,0,.1-.07.11-.67.08-1.07.12-1.18.12s-.1,0-.1-.08v-9.47a4.72,4.72,0,0,0,0-.7.08.08,0,0,1,0-.07A9.46,9.46,0,0,1,7228.53,7234.53Zm-.15,1a4.66,4.66,0,0,0-1.5.27v5a3.19,3.19,0,0,0,1.33.27,2.3,2.3,0,0,0,1.73-.75,2.93,2.93,0,0,0,.72-2.12,2.82,2.82,0,0,0-.61-1.92A2.09,2.09,0,0,0,7228.38,7235.56Z" transform="translate(-7157.73 -7154.79)"/></svg>