<svg id="Calque_1" data-name="Calque 1" xmlns="http://www.w3.org/2000/svg" xmlns:xlink="http://www.w3.org/1999/xlink" viewBox="0 0 75.57 92.51"><defs><style>.cls-1{mask:url(#mask);filter:url(#luminosity-noclip-2);}.cls-2,.cls-6{mix-blend-mode:multiply;}.cls-2,.cls-4{fill:url(#Áåçûìÿííûé_ãðàäèåíò_32);}.cls-3{mask:url(#mask-2);}.cls-5{mask:url(#mask-3);filter:url(#luminosity-noclip-4);}.cls-6,.cls-8{fill:url(#Áåçûìÿííûé_ãðàäèåíò_32-2);}.cls-7{mask:url(#mask-4);}.cls-9{mask:url(#mask-5);}.cls-10{mask:url(#mask-6);}.cls-11{fill:#00005b;}.cls-12{fill:#9797fd;}.cls-13{fill:#3e425c;}.cls-14{filter:url(#luminosity-noclip-3);}.cls-15{filter:url(#luminosity-noclip);}</style><filter id="luminosity-noclip" x="7157.73" y="-15391.5" width="83.55" height="32766" filterUnits="userSpaceOnUse" color-interpolation-filters="sRGB"><feFlood flood-color="#fff" result="bg"/><feBlend in="SourceGraphic" in2="bg"/></filter><mask id="mask" x="7157.73" y="-15391.5" width="83.55" height="32766" maskUnits="userSpaceOnUse"><g class="cls-15"/></mask><radialGradient id="Áåçûìÿííûé_ãðàäèåíò_32" cx="7199.5" cy="7202.26" r="41.77" gradientTransform="translate(13155.53 -1057.95) rotate(80.78)" gradientUnits="userSpaceOnUse"><stop offset="0" stop-color="#fff"/><stop offset="1"/></radialGradient><filter id="luminosity-noclip-2" x="7157.73" y="7160.48" width="83.55" height="83.55" filterUnits="userSpaceOnUse" color-interpolation-filters="sRGB"><feFlood flood-color="#fff" result="bg"/><feBlend in="SourceGraphic" in2="bg"/></filter><mask id="mask-2" x="7157.73" y="7160.48" width="83.55" height="83.55" maskUnits="userSpaceOnUse"><g class="cls-1"><circle class="cls-2" cx="7199.5" cy="7202.26" r="41.77" transform="translate(-1062.99 13155.12) rotate(-80.78)"/></g></mask><filter id="luminosity-noclip-3" x="7161.21" y="-15391.5" width="75.57" height="32766" filterUnits="userSpaceOnUse" color-interpolation-filters="sRGB"><feFlood flood-color="#fff" result="bg"/><feBlend in="SourceGraphic" in2="bg"/></filter><mask id="mask-3" x="7161.21" y="-15391.5" width="75.57" height="32766" maskUnits="userSpaceOnUse"><g class="cls-14"/></mask><radialGradient id="Áåçûìÿííûé_ãðàäèåíò_32-2" cx="7199" cy="7193.97" r="37.79" gradientTransform="translate(13146.92 -1064.42) rotate(80.78)" xlink:href="#Áåçûìÿííûé_ãðàäèåíò_32"/><filter id="luminosity-noclip-4" x="7161.21" y="7156.18" width="75.57" height="75.57" filterUnits="userSpaceOnUse" color-interpolation-filters="sRGB"><feFlood flood-color="#fff" result="bg"/><feBlend in="SourceGraphic" in2="bg"/></filter><mask id="mask-4" x="7161.21" y="7156.18" width="75.57" height="75.57" maskUnits="userSpaceOnUse"><g class="cls-5"><circle class="cls-6" cx="7199" cy="7193.97" r="37.79" transform="translate(-1055.23 13147.66) rotate(-80.78)"/></g></mask><mask id="mask-5" x="-3.48" y="9.46" width="83.55" height="83.55" maskUnits="userSpaceOnUse"><g transform="translate(-7161.21 -7151.03)"><g class="cls-3"><circle class="cls-4" cx="7199.5" cy="7202.26" r="41.77" transform="translate(-1062.99 13155.12) rotate(-80.78)"/></g></g></mask><mask id="mask-6" x="0" y="5.15" width="75.57" height="75.57" maskUnits="userSpaceOnUse"><g transform="translate(-7161.21 -7151.03)"><g class="cls-7"><circle class="cls-8" cx="7199" cy="7193.97" r="37.79" transform="translate(-1055.23 13147.66) rotate(-80.78)"/></g></g></mask></defs><g class="cls-9"><path d="M7241.27,7202.26" transform="translate(-7161.21 -7151.03)"/></g><g class="cls-10"><path d="M7161.21,7194a37.79,37.79,0,1,1,37.79,37.78,37.79,37.79,0,0,1-37.79-37.78" transform="translate(-7161.21 -7151.03)"/></g><rect class="cls-11" x="10.38" width="54.58" height="54.58" rx="11.63"/><path class="cls-12" d="M7199.17,7186.26v2.94a.45.45,0,0,1-.25.46,13.93,13.93,0,0,1-5.31.82,14.92,14.92,0,0,1-4.72-.73,11.92,11.92,0,0,1-3.92-2.16,9.58,9.58,0,0,1-2.72-3.84,14.38,14.38,0,0,1-1-5.52,11.46,11.46,0,0,1,3.47-8.72,12.69,12.69,0,0,1,9.16-3.31,12.35,12.35,0,0,1,5.28.81q.21.08.21.39v3.22c0,.24-.09.31-.28.21a9.93,9.93,0,0,0-5.06-1.13,8.09,8.09,0,0,0-6,2.21,8.39,8.39,0,0,0-2.21,6.18,10.51,10.51,0,0,0,.78,4.23,6.42,6.42,0,0,0,2.07,2.72,9.16,9.16,0,0,0,2.67,1.37,9.92,9.92,0,0,0,2.9.42,14.11,14.11,0,0,0,4.64-.74C7199.08,7186,7199.17,7186.08,7199.17,7186.26Z" transform="translate(-7161.21 -7151.03)"/><path class="cls-12" d="M7201.22,7189.84v-25a.22.22,0,0,1,.25-.25h4a.23.23,0,0,1,.25.25V7174a7.65,7.65,0,0,1,4.67-1.45,6.08,6.08,0,0,1,4.35,1.68q1.77,1.68,1.77,5.5v10.09a.24.24,0,0,1-.28.28h-3.9c-.21,0-.31-.09-.31-.28v-10.19a4.18,4.18,0,0,0-.77-2.69,2.67,2.67,0,0,0-2.24-1,4.82,4.82,0,0,0-3.29,1.27v12.6c0,.17-.1.25-.29.25h-3.93A.24.24,0,0,1,7201.22,7189.84Z" transform="translate(-7161.21 -7151.03)"/><path class="cls-13" d="M7180.09,7228.69v.82a.12.12,0,0,1-.08.13,5.08,5.08,0,0,1-2,.33,5.21,5.21,0,0,1-1.69-.27,4.74,4.74,0,0,1-1.48-.8,3.65,3.65,0,0,1-1.07-1.49,5.78,5.78,0,0,1-.39-2.19,4.5,4.5,0,0,1,1.3-3.36,4.7,4.7,0,0,1,3.45-1.3,4.47,4.47,0,0,1,2,.33.14.14,0,0,1,.07.13v.89c0,.08,0,.1-.08.07a3.77,3.77,0,0,0-2-.42,3.42,3.42,0,0,0-2.54,1,3.61,3.61,0,0,0-1,2.65,4.51,4.51,0,0,0,.35,1.84,2.83,2.83,0,0,0,.9,1.18,3.92,3.92,0,0,0,1.13.58,4.12,4.12,0,0,0,1.16.17,5,5,0,0,0,1.85-.31C7180.06,7228.62,7180.09,7228.64,7180.09,7228.69Z" transform="translate(-7161.21 -7151.03)"/><path class="cls-13" d="M7181.35,7229.74V7220c0-.05,0-.08.09-.08h1.05c.06,0,.09,0,.09.08v3.82a2.91,2.91,0,0,1,1.94-.68,2.4,2.4,0,0,1,.8.13,2.19,2.19,0,0,1,.72.41,1.89,1.89,0,0,1,.56.82,3.71,3.71,0,0,1,.21,1.31v3.91c0,.06,0,.09-.1.09h-1c-.07,0-.11,0-.11-.09v-3.91a2,2,0,0,0-.36-1.24,1.26,1.26,0,0,0-1-.45,2.32,2.32,0,0,0-1.61.65v5c0,.06,0,.08-.09.08h-1C7181.39,7229.83,7181.35,7229.8,7181.35,7229.74Z" transform="translate(-7161.21 -7151.03)"/><path class="cls-13" d="M7193.19,7225.7v2.88a5.37,5.37,0,0,0,0,.7.07.07,0,0,1,0,.05,5.57,5.57,0,0,1-2.64.64,3,3,0,0,1-1.86-.53,1.84,1.84,0,0,1-.7-1.57,1.68,1.68,0,0,1,.85-1.55,4.15,4.15,0,0,1,2.22-.52q.66,0,.93,0v-.35a1.75,1.75,0,0,0-.05-.4,2.25,2.25,0,0,0-.19-.44,1,1,0,0,0-.46-.38,1.78,1.78,0,0,0-.76-.15,3.77,3.77,0,0,0-1.84.5s0,0-.06,0a.09.09,0,0,1,0-.06v-.79a.12.12,0,0,1,.07-.11,4.23,4.23,0,0,1,2.07-.5,2.3,2.3,0,0,1,1.84.7A2.7,2.7,0,0,1,7193.19,7225.7Zm-1.2,3.14v-2.2c-.32,0-.62-.05-.88-.05a2.55,2.55,0,0,0-1.42.33,1,1,0,0,0-.49.92,1.2,1.2,0,0,0,.38.9,1.72,1.72,0,0,0,1.2.36A2.71,2.71,0,0,0,7192,7228.84Z" transform="translate(-7161.21 -7151.03)"/><path class="cls-13" d="M7194.81,7223.29h1a.12.12,0,0,1,.12.1,3.77,3.77,0,0,1,.11.84,2.67,2.67,0,0,1,2.17-1.07c.06,0,.09,0,.09.08v1c0,.07,0,.1-.09.1a2.36,2.36,0,0,0-2,.77.47.47,0,0,0-.12.34v4.29a.08.08,0,0,1-.09.09h-1.05c-.06,0-.1,0-.1-.09v-4.61c0-.74,0-1.32-.06-1.76C7194.74,7223.32,7194.76,7223.29,7194.81,7223.29Z" transform="translate(-7161.21 -7151.03)"/><path class="cls-13" d="M7203.77,7225.7v2.88a5.37,5.37,0,0,0,0,.7.05.05,0,0,1,0,.05,5.53,5.53,0,0,1-2.63.64,3,3,0,0,1-1.86-.53,1.84,1.84,0,0,1-.71-1.57,1.7,1.7,0,0,1,.85-1.55,4.19,4.19,0,0,1,2.22-.52c.44,0,.76,0,.94,0v-.35a1.34,1.34,0,0,0-.06-.4,2.25,2.25,0,0,0-.19-.44,1,1,0,0,0-.45-.38,1.82,1.82,0,0,0-.77-.15,3.77,3.77,0,0,0-1.83.5,0,0,0,0,1-.06,0s0,0,0-.06v-.79a.14.14,0,0,1,.07-.11,4.29,4.29,0,0,1,2.08-.5,2.3,2.3,0,0,1,1.83.7A2.65,2.65,0,0,1,7203.77,7225.7Zm-1.19,3.14v-2.2c-.33,0-.62-.05-.89-.05a2.53,2.53,0,0,0-1.41.33,1,1,0,0,0-.5.92,1.17,1.17,0,0,0,.39.9,1.72,1.72,0,0,0,1.2.36A2.77,2.77,0,0,0,7202.58,7228.84Z" transform="translate(-7161.21 -7151.03)"/><path class="cls-13" d="M7209.93,7228.8v.79a.13.13,0,0,1-.05.11,3.75,3.75,0,0,1-1.55.27,3.13,3.13,0,0,1-2.45-1,3.48,3.48,0,0,1-.86-2.42,3.33,3.33,0,0,1,1-2.46,3.39,3.39,0,0,1,2.52-1,3.34,3.34,0,0,1,1.37.21.22.22,0,0,1,.06.13v.81c0,.06,0,.08-.09,0a3,3,0,0,0-1.28-.27,2.16,2.16,0,0,0-1.66.68,2.57,2.57,0,0,0-.62,1.78,2.41,2.41,0,0,0,.66,1.81,2.23,2.23,0,0,0,1.62.65,2.9,2.9,0,0,0,1.29-.26S7209.93,7228.75,7209.93,7228.8Z" transform="translate(-7161.21 -7151.03)"/><path class="cls-13" d="M7214.38,7229v.61a.16.16,0,0,1-.08.13,2.4,2.4,0,0,1-1.1.22c-1.08,0-1.62-.6-1.62-1.79v-4h-.89s-.08,0-.08-.11v-.7c0-.07,0-.1.09-.1h.88a10.53,10.53,0,0,1,.14-1.73.14.14,0,0,1,.08-.1l1-.15q.09,0,.09.06a18.88,18.88,0,0,0-.08,1.92h1.41a.07.07,0,0,1,.08.08v.75c0,.06,0,.08-.08.08h-1.42v3.9c0,.64.27,1,.82,1a1.93,1.93,0,0,0,.67-.12C7214.35,7228.92,7214.38,7228.94,7214.38,7229Z" transform="translate(-7161.21 -7151.03)"/><path class="cls-13" d="M7219.09,7226.67h-2.91a2.4,2.4,0,0,0,.55,1.69,2.13,2.13,0,0,0,1.67.63,3.65,3.65,0,0,0,1.68-.35c.05,0,.08,0,.08,0v.75c0,.06,0,.11-.07.12a4.19,4.19,0,0,1-1.94.41,3,3,0,0,1-2.43-1,4.08,4.08,0,0,1,0-4.85,2.73,2.73,0,0,1,2.22-1,2.41,2.41,0,0,1,2,.82,2.9,2.9,0,0,1,.65,1.87,5.36,5.36,0,0,1,0,.67.14.14,0,0,1-.11.11A13.08,13.08,0,0,1,7219.09,7226.67Zm-2.91-.8h2.42c.52,0,.8,0,.86,0s0-.1,0-.22a1.89,1.89,0,0,0-.36-1.11,1.36,1.36,0,0,0-1.19-.51,1.5,1.5,0,0,0-1.21.53A2.57,2.57,0,0,0,7216.18,7225.87Z" transform="translate(-7161.21 -7151.03)"/><path class="cls-13" d="M7221.86,7223.29h1a.12.12,0,0,1,.12.1,3.77,3.77,0,0,1,.11.84,2.67,2.67,0,0,1,2.17-1.07c.06,0,.09,0,.09.08v1c0,.07,0,.1-.09.1a2.36,2.36,0,0,0-2,.77.47.47,0,0,0-.12.34v4.29a.08.08,0,0,1-.09.09H7222a.08.08,0,0,1-.09-.09v-4.61c0-.74,0-1.32-.07-1.76C7221.78,7223.32,7221.8,7223.29,7221.86,7223.29Z" transform="translate(-7161.21 -7151.03)"/><path class="cls-13" d="M7180,7239.26v2.89c0,.24,0,.47,0,.7a.05.05,0,0,1,0,0,5.53,5.53,0,0,1-2.63.64,3,3,0,0,1-1.86-.53,1.85,1.85,0,0,1-.71-1.58,1.7,1.7,0,0,1,.85-1.54,4.19,4.19,0,0,1,2.22-.52c.44,0,.76,0,.94,0v-.35a1.34,1.34,0,0,0-.06-.4,1.77,1.77,0,0,0-.19-.44,1,1,0,0,0-.45-.38,1.79,1.79,0,0,0-.77-.16,3.67,3.67,0,0,0-1.83.51,0,0,0,0,1-.06,0,.09.09,0,0,1,0-.06v-.79a.13.13,0,0,1,.06-.11,4.29,4.29,0,0,1,2.08-.5,2.3,2.3,0,0,1,1.83.7A2.65,2.65,0,0,1,7180,7239.26Zm-1.19,3.15v-2.2c-.33,0-.62-.05-.88-.05a2.64,2.64,0,0,0-1.42.32,1.06,1.06,0,0,0-.5.93,1.17,1.17,0,0,0,.39.9,1.72,1.72,0,0,0,1.2.36A2.89,2.89,0,0,0,7178.76,7242.41Z" transform="translate(-7161.21 -7151.03)"/><path class="cls-13" d="M7181.58,7243.31v-4.91c0-.67,0-1.15-.05-1.46,0,0,0-.08.08-.08h.92a.12.12,0,0,1,.12.08,3,3,0,0,1,.08.68,2.88,2.88,0,0,1,2.08-.89,2.43,2.43,0,0,1,.77.11,2.33,2.33,0,0,1,.7.39,1.83,1.83,0,0,1,.55.83,3.59,3.59,0,0,1,.2,1.3v4a.08.08,0,0,1-.09.09h-1c-.07,0-.1,0-.1-.11v-3.93a1.92,1.92,0,0,0-.35-1.2,1.21,1.21,0,0,0-1-.46,2,2,0,0,0-1.64.85v4.76a.08.08,0,0,1-.09.09h-1A.08.08,0,0,1,7181.58,7243.31Z" transform="translate(-7161.21 -7151.03)"/><path class="cls-13" d="M7189.29,7235.4a.71.71,0,0,1-.5-1.2.73.73,0,0,1,.51-.19.66.66,0,0,1,.49.19.71.71,0,0,1,.18.5.73.73,0,0,1-.19.51A.7.7,0,0,1,7189.29,7235.4Zm-.63,7.89V7237a.09.09,0,0,1,.1-.1h1c.07,0,.1,0,.1.08v6.37c0,.06,0,.09-.1.09h-1A.1.1,0,0,1,7188.66,7243.29Z" transform="translate(-7161.21 -7151.03)"/><path class="cls-13" d="M7192.68,7243.4h-1.06c-.05,0-.08,0-.08-.11v-5c0-.56,0-1-.05-1.35,0,0,0-.08.08-.08h.92a.17.17,0,0,1,.12.07,4.52,4.52,0,0,1,.08.64,2.88,2.88,0,0,1,2-.84,1.93,1.93,0,0,1,1.8,1,3.2,3.2,0,0,1,2.28-1,2.25,2.25,0,0,1,1.58.59,2.61,2.61,0,0,1,.65,2v4c0,.06,0,.09-.11.09h-1c-.06,0-.09,0-.09-.11v-4a1.92,1.92,0,0,0-.34-1.16,1.17,1.17,0,0,0-1-.46,2,2,0,0,0-1.62.82,5.93,5.93,0,0,1,0,.81v4c0,.06,0,.09-.08.09h-1a.08.08,0,0,1-.09-.09v-4a1.83,1.83,0,0,0-.35-1.17,1.21,1.21,0,0,0-1-.43,2,2,0,0,0-1.59.79v4.82C7192.76,7243.37,7192.73,7243.4,7192.68,7243.4Z" transform="translate(-7161.21 -7151.03)"/><path class="cls-13" d="M7207.41,7239.26v2.89c0,.24,0,.47,0,.7a.05.05,0,0,1,0,0,5.53,5.53,0,0,1-2.63.64,3,3,0,0,1-1.86-.53,1.84,1.84,0,0,1-.7-1.58,1.69,1.69,0,0,1,.84-1.54,4.19,4.19,0,0,1,2.22-.52c.45,0,.76,0,.94,0v-.35a1.75,1.75,0,0,0-.05-.4,2.25,2.25,0,0,0-.19-.44,1,1,0,0,0-.46-.38,1.79,1.79,0,0,0-.77-.16,3.67,3.67,0,0,0-1.83.51,0,0,0,0,1-.06,0,.09.09,0,0,1,0-.06v-.79a.12.12,0,0,1,.07-.11,4.23,4.23,0,0,1,2.07-.5,2.27,2.27,0,0,1,1.83.7A2.65,2.65,0,0,1,7207.41,7239.26Zm-1.19,3.15v-2.2c-.33,0-.62-.05-.88-.05a2.64,2.64,0,0,0-1.42.32,1.06,1.06,0,0,0-.5.93,1.17,1.17,0,0,0,.39.9,1.72,1.72,0,0,0,1.2.36A2.86,2.86,0,0,0,7206.22,7242.41Z" transform="translate(-7161.21 -7151.03)"/><path class="cls-13" d="M7212,7242.57v.61a.16.16,0,0,1-.08.14,2.4,2.4,0,0,1-1.1.22c-1.08,0-1.62-.6-1.62-1.79v-4h-.89c-.05,0-.08,0-.08-.11v-.7c0-.07,0-.1.09-.1h.88a10.8,10.8,0,0,1,.14-1.74.14.14,0,0,1,.08-.09l1-.15q.09,0,.09.06a18.88,18.88,0,0,0-.08,1.92h1.41a.07.07,0,0,1,.08.08v.75a.07.07,0,0,1-.08.08h-1.42v3.9c0,.64.27,1,.82,1a1.93,1.93,0,0,0,.67-.12C7211.93,7242.49,7212,7242.51,7212,7242.57Z" transform="translate(-7161.21 -7151.03)"/><path class="cls-13" d="M7215.75,7236.73a3,3,0,0,1,2.3.94,3.94,3.94,0,0,1,0,4.94,3,3,0,0,1-2.3.93,2.9,2.9,0,0,1-2.38-1,3.64,3.64,0,0,1-.82-2.4,3.44,3.44,0,0,1,.9-2.44A3,3,0,0,1,7215.75,7236.73Zm-.06.89a1.72,1.72,0,0,0-1.4.67,2.88,2.88,0,0,0-.53,1.82,3,3,0,0,0,.53,1.83,1.83,1.83,0,0,0,2.82.07,2.74,2.74,0,0,0,.56-1.86,3.13,3.13,0,0,0-.5-1.82A1.7,1.7,0,0,0,7215.69,7237.62Z" transform="translate(-7161.21 -7151.03)"/><path class="cls-13" d="M7220.15,7236.86h1a.12.12,0,0,1,.12.1,3.77,3.77,0,0,1,.11.84,2.67,2.67,0,0,1,2.17-1.07c.06,0,.09,0,.09.08v1c0,.07,0,.1-.09.1a2.36,2.36,0,0,0-2,.77.45.45,0,0,0-.12.34v4.29a.08.08,0,0,1-.09.09h-1.05c-.06,0-.1,0-.1-.09v-4.61c0-.74,0-1.32-.06-1.76C7220.08,7236.89,7220.1,7236.86,7220.15,7236.86Z" transform="translate(-7161.21 -7151.03)"/></svg>