<?xml version="1.0" encoding="UTF-8"?>
<svg width="387px" height="94px" viewBox="0 0 387 94" version="1.1" xmlns="http://www.w3.org/2000/svg" xmlns:xlink="http://www.w3.org/1999/xlink">
    <title>LFK/Logo/Horizontal - Full Copy</title>
    <defs>
        <filter id="filter-1">
            <feColorMatrix in="SourceGraphic" type="matrix" values="0 0 0 0 0.980392 0 0 0 0 0.980392 0 0 0 0 0.980392 0 0 0 1.000000 0"></feColorMatrix>
        </filter>
    </defs>
    <g id="Kit-UI" stroke="none" stroke-width="1" fill="none" fill-rule="evenodd">
        <g transform="translate(-490.000000, -671.000000)" id="Group">
            <g transform="translate(490.000000, 671.000000)" filter="url(#filter-1)" id="LFK/Logo/Horizontal---Full-Copy">
                <g>
                    <path d="M52.4622245,0.0793494607 C79.6768995,0.611412096 98.9430401,18.1967454 106.081334,32.547698 C110.465691,41.3587879 112.021383,54.7915271 107.019314,67.0378109 C104.926528,73.2007469 99.6185477,79.9163796 93.6446305,82.4333601 C90.1883138,84.4554929 88.7651462,84.7101018 88.5494255,86.4076175 C88.4540814,87.1754973 88.6252591,89.8958702 87.1708009,91.6880812 C84.7415503,94.6796439 81.5569091,94.0035117 80.0888304,93.7588513 C68.3998127,89.916123 61.5503993,84.8659337 57.289694,82.4322598 L57.0678245,82.3066084 L54.0142355,80.2479976 C51.9814544,80.4687078 50.0811981,80.4996588 48.2310066,80.4687078 C44.5648591,80.2977403 41.1678103,79.9075365 37.9835373,78.7564536 C31.5708163,76.4870812 26.4837099,72.5404587 22.6710491,66.5057483 C27.8818451,71.1259237 33.6128004,73.3201294 39.0923269,74.245712 C41.9084759,74.7674577 44.94145,74.7070295 48.1673211,74.597964 C49.7826495,74.500321 51.3950328,74.3695161 53.2028901,74.0880093 C55.4429113,73.7445458 56.6537304,74.5026465 56.740348,74.5592732 L56.7453478,74.5625915 L60.4523571,76.9410293 C63.9933423,79.0232218 72.2591999,84.4997086 81.3824183,87.5041676 C82.5169766,87.6784513 82.0369429,86.3667179 82.4220006,84.708628 C83.2852515,79.9163796 88.7257569,77.9502534 90.3694308,76.9572418 C95.9512959,74.4107841 98.7505112,70.1646 101.075583,64.7448567 C110.897869,41.8495825 93.3468182,25.0302867 92.595477,24.0958609 C91.9357987,23.2870815 76.9675065,6.96152807 52.1784008,6.44125629 C40.2905707,5.85466092 27.7846604,9.05845913 19.5662908,15.2140259 C11.0883939,21.2236807 7.85037469,29.3203181 7.04528738,33.2179348 C4.18754035,47.9550381 8.11505589,57.9982731 20.4052456,64.8727139 C6.63703781,62.5311225 -3.07922848,49.5803347 0.898720049,31.7385501 C1.81718956,26.9650934 5.90631156,17.0323978 15.812898,10.065104 C25.4091558,2.89110152 39.4512479,-0.580938796 52.4622245,0.0793494607 Z M271.123337,17.2228272 C271.836652,17.2228272 272.21676,17.5553595 272.26427,18.2216484 L272.26936,18.3695336 L272.26936,33.4269254 C274.788957,33.1208609 278.072443,32.968017 282.043468,32.968017 C289.069301,32.968017 293.727113,34.4200349 296.018407,37.3252001 C298.308573,40.2288594 299.45422,45.9620149 299.45422,54.5224077 C299.45422,63.388865 298.690706,68.20458 295.864952,71.6431934 C293.03995,75.0065141 288.687544,76 280.74587,76 C275.399768,76 269.978442,75.5418445 264.403662,74.6247806 C263.46948,74.4802188 263.00873,73.9981793 262.957756,73.1774069 L262.952985,73.0195422 L262.952985,18.3695336 C262.952985,17.6555589 263.285866,17.2754283 263.950403,17.2279174 L264.09788,17.2228272 L271.123337,17.2228272 Z M164.904061,32.9681299 C177.815312,32.9681299 182.663402,36.8536413 182.770718,45.2167542 L182.772545,45.5035958 L182.772545,72.1022147 C182.772545,73.2481682 182.238085,73.9367191 181.245141,74.3192055 C177.351219,75.4655354 171.624112,75.9997365 164.063819,75.9997365 C158.184386,75.9997365 154.059906,75.159471 151.616285,73.5538562 C149.172664,71.8733252 147.951041,68.433206 147.951041,63.2357575 C147.951041,54.1013701 152.345966,51.155826 162.092437,51.0844887 L162.46044,51.0831544 L173.532897,51.0831544 L173.532897,47.1084577 C173.532897,42.907709 171.105755,41.0627285 165.239777,40.9958365 L164.904061,40.9939452 L152.380551,40.9939452 C151.515235,40.9939452 151.262516,40.7894456 151.237107,39.9938523 L151.234904,39.8472388 L151.234904,35.1847442 C151.234904,34.2680567 151.464334,34.1912583 152.303823,33.9619923 C155.892715,33.2738179 160.092794,32.9681299 164.904061,32.9681299 Z M213.317505,16.7644458 C215.531696,16.7644458 218.051292,16.9929589 220.800694,17.4526202 C221.51401,17.5945719 221.893789,18.0041235 221.941256,18.6791326 L221.946341,18.8278397 L221.946341,23.6431783 C221.946341,24.3596345 221.611143,24.7405827 220.876906,24.7854026 L220.724719,24.7898847 L215.684398,24.7898847 C211.726964,24.7898847 210.325458,25.3013271 210.265123,28.1819928 L210.263073,28.3820949 L210.263073,33.4266995 L216.748052,33.4266995 C218.418091,33.354158 220.247647,33.2906783 222.114813,33.2359412 L223.050965,33.2092998 C228.679914,33.0538045 234.464489,32.976514 237.113186,32.9688089 L237.525036,32.9681675 C250.435915,32.9681675 255.284001,36.8536789 255.391317,45.216428 L255.393144,45.503257 L255.393144,72.1022524 C255.393144,73.2482058 254.859436,73.9367567 253.866116,74.3188667 C249.971818,75.4651966 244.245087,75.9997741 236.684794,75.9997741 C230.804984,75.9997741 226.68088,75.1595086 224.23726,73.5538938 C221.793639,71.8729864 220.57164,68.4332437 220.57164,63.2357951 C220.57164,54.1014077 224.966932,51.1558636 234.713774,51.0845264 L235.081791,51.0831921 L246.153872,51.0831921 L246.153872,47.1084954 C246.153872,42.9077466 243.72673,41.0627661 237.860752,40.9958741 L237.525036,40.9939829 L210.263073,40.9939829 L210.263073,74.4713342 C210.263073,75.1853089 209.93052,75.5654395 209.265109,75.6129504 L209.117426,75.6180406 L202.167944,75.6180406 C201.455682,75.6180406 201.075645,75.2855083 201.028139,74.6192194 L201.023049,74.4713342 L201.023049,40.6882949 L195.830026,40.6882949 C195.043005,40.6882949 194.657957,40.3521252 194.6129,39.6804061 L194.608403,39.5415885 L194.608403,34.5734059 C194.608403,33.8562438 194.944263,33.4759132 195.677963,33.4311733 L195.830026,33.4266995 L201.023049,33.4266995 L201.023049,26.5475906 C201.023049,22.2675824 202.47335,19.4392157 205.146777,18.2160873 C207.895427,16.9929589 209.881316,16.7644458 213.317505,16.7644458 Z M138.005237,17.1474593 C138.597092,17.1474593 139.084103,17.5954269 139.146407,18.1712041 L139.153141,18.2964245 L139.153141,63.0063032 C139.153141,64.7256099 139.703022,65.2726107 139.883557,65.4533129 C140.175046,65.7416836 140.99573,66.3526831 142.849226,66.5232209 C143.389166,66.5732098 143.817222,67.0007124 143.878629,67.5296303 L143.886176,67.6533629 L143.932842,74.5354835 C143.937327,75.1882704 143.393089,75.7348947 142.742409,75.6983778 C138.872559,75.4811587 135.688367,74.1974197 133.431676,71.9506884 C131.912626,70.4408206 130.112766,67.747909 130.005078,63.4171264 L130,63.0063032 L130,18.2964245 C130,17.7040223 130.447554,17.2165612 131.022799,17.1541993 L131.147904,17.1474593 L138.005237,17.1474593 Z M318.849694,32.9681675 C323.202476,32.9681675 326.256908,33.2738555 328.166069,33.808433 C328.949593,34.022766 329.335035,34.4364871 329.382946,35.0502087 L329.388068,35.1847819 L329.388068,39.8472765 C329.388068,40.6388232 328.981936,41.0235294 328.233641,41.0026503 L328.089342,40.9939829 L321.140612,40.9939829 C316.57749,40.9939829 315.238829,41.7266059 315.18609,44.9180859 L315.184451,45.1207706 L315.184451,74.4713342 C315.184451,75.1853089 314.852226,75.5654395 314.186247,75.6129504 L314.038428,75.6180406 L307.090074,75.6180406 C306.377461,75.6180406 305.997401,75.2855083 305.949893,74.6192194 L305.944803,74.4713342 L305.944803,42.7516888 C305.944803,38.4713041 307.548183,35.6429374 310.373184,34.4201854 C313.198938,33.1970571 315.413881,32.9681675 318.849694,32.9681675 Z M341.604856,33.3507293 C342.31782,33.3507293 342.697904,33.6832616 342.745413,34.3489383 L342.750503,34.4966827 L342.750503,74.4714095 C342.750503,75.1853842 342.41795,75.5651869 341.752539,75.612654 L341.604856,75.6177394 L334.65575,75.6177394 C333.943137,75.6177394 333.563404,75.2855351 333.515941,74.6192899 L333.510855,74.4714095 L333.510855,34.4966827 C333.510855,33.7834108 333.84308,33.403327 334.508142,33.3558193 L334.65575,33.3507293 L341.604856,33.3507293 Z M358.862115,17.2228272 C359.578614,17.2228272 359.958594,17.5583352 360.003292,18.2935617 L360.007762,18.4459556 L360.007762,48.1018307 L371.767758,34.1143469 C372.115152,33.6283673 372.588124,33.3950225 373.187806,33.3566125 L373.371514,33.3508799 L381.618969,33.3508799 C382.865024,33.3508799 383.125962,33.7724221 382.401452,34.6857844 L382.305756,34.8025213 L369.400865,50.0123806 L386.200429,73.5541197 C387.012299,74.4406148 386.825674,75.5416981 385.087453,75.6141186 L384.902079,75.61789 L377.494489,75.61789 C376.870138,75.61789 376.371365,75.3652553 375.942221,74.9174029 L375.815511,74.7772481 L360.007762,52.0765274 L360.007762,74.3951381 C360.007762,75.1835929 359.672564,75.5683793 359.000928,75.6133977 L358.862115,75.61789 L351.913385,75.61789 C351.197591,75.61789 350.817325,75.2823821 350.772588,74.5474657 L350.768114,74.3951381 L350.768114,18.4459556 C350.768114,17.6571479 351.103643,17.2723395 351.7747,17.2273197 L351.913385,17.2228272 L358.862115,17.2228272 Z M173.532897,57.7326209 L162.9949,57.7326209 C158.795197,57.7326209 157.114338,59.1082168 157.114338,62.8536475 C157.114338,67.1336557 159.023875,68.2807385 164.827333,68.2807385 C168.300025,68.2807385 171.087121,68.0060436 173.188939,67.5219531 L173.532897,67.4393436 L173.532897,57.7326209 Z M246.153872,57.7326585 L235.615499,57.7326585 C231.415796,57.7326585 229.735313,59.1082545 229.735313,62.8533087 C229.735313,67.1336933 231.64485,68.2803997 237.448308,68.2803997 C240.921,68.2803997 243.707758,68.0060426 245.809861,67.5219877 L246.153872,67.4393813 L246.153872,57.7326585 Z M280.592415,40.9938323 L272.26936,40.9938323 L272.26936,67.3631852 C275.093986,67.7449187 277.996468,67.9745611 280.821846,67.9745611 C284.945573,67.9745611 287.541897,67.1335427 288.610817,65.3758368 C289.680112,63.618131 290.214948,60.0255443 290.214948,54.5224077 C290.214948,48.8664272 289.680112,45.1974185 288.534089,43.5161346 C287.389194,41.8344742 284.792871,40.9938323 280.592415,40.9938323 Z M74.9475362,25.7331695 L79.1526173,25.7379595 L80.3379767,29.5810435 C81.5742293,29.830586 82.7904709,30.2036908 83.9519289,30.70332 L84.4462412,30.9252017 L87.6728485,28.5239191 L91.072106,31.0058955 L89.7685787,34.8102907 C90.6481498,35.7362009 91.4247552,36.7689566 92.0709892,37.8938072 L92.3071622,38.3199144 L96.2950501,38.2683294 L97.6007861,42.2639576 L94.3454651,44.5672288 C94.5042646,45.8491165 94.4891658,47.1140779 94.3660146,48.3734678 L94.3068121,48.9128982 L97.5989455,51.2474889 L96.2777483,55.2438541 L92.2438449,55.1933744 C91.6324829,56.3198623 90.9233206,57.3620006 90.0958892,58.3059662 L89.7339751,58.704472 L90.9988493,62.5029718 L87.5889162,64.9573133 L84.3924951,62.5656107 C83.3272779,63.0874903 81.8151399,63.5871403 80.6177742,63.8281454 L80.2687694,63.8924511 L79.0749431,67.7137957 L74.8518239,67.7064264 L73.6664645,63.8673956 C72.439553,63.6188202 71.2272975,63.2557101 70.061018,62.7407918 L69.56409,62.5107095 L66.353312,64.9171507 L62.9419064,62.4289104 L64.2384393,58.5961434 C63.3618133,57.6643378 62.575064,56.6585846 61.9216271,55.5434303 L61.6829221,55.12005 L57.6946661,55.1727404 L56.3926114,51.142845 L59.6597123,48.8594709 C59.4987194,47.574267 59.5180618,46.2812025 59.6536204,45.0092612 L59.7097772,44.53333 L56.4143307,42.1884224 L57.7285336,38.199058 L61.7561788,38.2476953 C62.3736609,37.1276556 63.1027536,36.0758854 63.9261939,35.1284237 L64.284823,34.72886 L63.0004381,30.9465727 L66.42436,28.4642278 L69.6222536,30.8920399 C70.5533971,30.3788216 72.290135,29.836692 73.4881549,29.6025562 L73.7544461,29.5541456 L74.9475362,25.7331695 Z M73.0480161,34.3920836 C69.7418939,35.4554719 67.0700496,37.7546899 65.4878524,40.8239986 C63.9178033,43.896992 63.6339796,47.4025625 64.6956494,50.6951607 C65.7547423,53.9873904 68.0279083,56.6524936 71.1024804,58.2497869 C74.1796294,59.8238669 77.6782804,60.0994783 80.970782,59.04567 C84.2643879,57.9789655 86.9292379,55.7062769 88.5294732,52.6181765 C90.0870061,49.5525525 90.3822415,46.0421919 89.3165224,42.7536468 C87.1110912,35.9495827 79.8207624,32.2034049 73.0480161,34.3920836 Z M49.7933987,14.9232338 L50.7122363,18.9428122 C51.7946315,19.289353 52.8161978,19.8415301 53.7216527,20.5633497 L54.0190947,20.8101899 L57.8582605,19.530513 L59.9462601,23.0685084 L56.9928008,25.8154107 C57.2608319,27.0098987 57.2944932,28.1990145 57.1080078,29.3542853 L57.037712,29.738083 L59.9801275,32.3552859 L57.9915214,35.9422871 L54.2311342,34.7915727 C53.3309859,35.5650079 52.1134058,36.3444083 51.0144404,36.7382442 L50.7424225,36.8284441 L49.9660489,40.6376293 L45.8618338,40.6903197 L44.9750229,36.7750167 C43.8395276,36.4112418 42.7855671,35.8330876 41.8543515,35.045814 L41.5787104,34.8033636 L37.7870327,36.0793559 L35.6968243,32.5487297 L38.7003484,29.7513478 C38.4641232,28.6115768 38.4491479,27.4470339 38.6377107,26.3256776 L38.708079,25.9535849 L35.6537538,23.2431606 L37.666288,19.6609494 L41.5842323,20.866565 C42.3041252,20.1254778 43.5245785,19.3885207 44.6228051,19.037736 L44.8737888,18.9638147 L45.6829255,14.9737134 L49.7933987,14.9232338 Z M45.1903755,23.2969564 C42.6609951,24.7796572 41.8341885,28.0250919 43.289751,30.5490733 C44.758566,33.0866878 48.0149914,33.9396829 50.5410586,32.4532974 C52.7759398,31.1666196 53.9244868,27.7096864 52.4427875,25.2011805 C50.9677144,22.6746199 47.7090803,21.8109393 45.1903755,23.2969564 Z M338.16878,16 C341.834023,16 343.666832,17.7580823 343.666832,21.2734941 C343.666832,24.7900353 341.834023,26.5477412 338.16878,26.5477412 C334.579512,26.5477412 332.594751,24.6364384 332.594751,21.2734941 C332.594751,17.9105499 334.579512,16 338.16878,16 Z" id="Combined-Shape-Copy-3" fill="#222222"></path>
                </g>
            </g>
        </g>
    </g>
</svg>